PathFileType	4	(X/Y/Z)	66_1_13_p1_0-186.trc
DataRate	CameraRate	NumFrames	NumMarkers	Units	OrigDataRate	OrigDataStartFrame	OrigNumFrames
60.0	60.0	5	27	m	60.0	93	187
Frame#	Time	RHip			RKnee			RAnkle			RBigToe			RSmallToe			RHeel			LHip			LKnee			LAnkle			LBigToe			LSmallToe			LHeel			Neck			Head			Nose			RShoulder			RElbow			RWrist			RThumb			RIndex			RPinky			LShoulder			LElbow			LWrist			LThumb			LIndex			LPinky			
		X1	Y1	Z1	X2	Y2	Z2	X3	Y3	Z3	X4	Y4	Z4	X5	Y5	Z5	X6	Y6	Z6	X7	Y7	Z7	X8	Y8	Z8	X9	Y9	Z9	X10	Y10	Z10	X11	Y11	Z11	X12	Y12	Z12	X13	Y13	Z13	X14	Y14	Z14	X15	Y15	Z15	X16	Y16	Z16	X17	Y17	Z17	X18	Y18	Z18	X19	Y19	Z19	X20	Y20	Z20	X21	Y21	Z21	X22	Y22	Z22	X23	Y23	Z23	X24	Y24	Z24	X25	Y25	Z25	X26	Y26	Z26	X27	Y27	Z27	
93	1.55	0.5308516280132343	0.7698128876642728	0.7410166129143392	0.5416462670730627	0.9815421589096857	1.2092470327307876	0.5311265280494816	1.1987994655325007	1.6046978401290115	0.5062737766360504	0.9617145705659365	1.6630530525189735	0.5671889067166632	0.9820644660427346	1.6478127998282346	0.5200311129035541	1.250721037883295	1.6549368033877163	0.36120351444633453	0.8518159080818228	0.7220889707196089	0.3320847489623814	0.9978225829197038	1.2046469342006978	0.3467090776603991	1.1520207346632232	1.5975331653993103	0.33862855297292804	0.9416021310080213	1.6413908712614307	0.2832368646128266	1.021791432120272	1.64800695461465	0.365304907638877	1.2311271769648655	1.6434968492608815	0.4785965243363592	0.6995907267592368	0.17500745955598257	0.44292025254347306	0.5770931334078978	-0.05049132795874082	0.41975744395815523	0.555599706656564	0.06484920867553351	0.6219741176992688	0.6570165636083312	0.27608572058850933	0.6651812430029251	0.5914280158796869	0.5169019742355296	0.511075541059587	0.527705272107515	0.39836827828736704	0.4265697875547577	0.5737196443270209	0.28622943731446654	0.41503669082099615	0.5625011697478056	0.2973320794346991	0.4196161089527072	0.5529439381371765	0.3392196818081384	0.34809323577480067	0.7934929952029877	0.23815258816571228	0.24293571812072787	0.9550642812991731	0.3664364481929753	0.1969080494275419	0.914418530107923	0.5319962838616645	0.19841804002827346	0.875136954614261	0.6188404696720124	0.1362413110163112	0.8952267156248487	0.6308957292524966	0.13016899504783797	1.0088165775728768	0.6432462195776595
94	1.5666666666666667	0.5323147253175483	0.7703560398181787	0.7455185022584376	0.5317513941052631	0.9625610670101947	1.2006445963572645	0.5351083928873901	1.1773476978218507	1.6017495867813327	0.5045838531375101	0.9629630445544148	1.6675824166450626	0.5608524773990279	0.9775114796163088	1.6460234208435451	0.5179202576280239	1.263439329779686	1.6641195746875936	0.3608737568127278	0.8517588846778096	0.7221613067734955	0.33236988286723684	0.9977005722788491	1.2047875026931152	0.3476098191665824	1.1552458175600595	1.6033943669644208	0.34000107403555163	0.9400174426298524	1.6362153987138777	0.28372602045490525	1.0217276541057405	1.647858428640816	0.36519949460334356	1.2323659133777265	1.6483417136798095	0.4708352497869022	0.7115744704894299	0.17394271409079173	0.44256674122509476	0.5762406886765266	-0.05385177965747264	0.4199974670060118	0.5573596261426947	0.06814158521624203	0.6189312817428002	0.6702677982315133	0.2754264753836689	0.6600514351867104	0.6201077744812662	0.5180724911010073	0.5111284660204432	0.5283817624707315	0.4058000090725536	0.4223485311719654	0.574967160629204	0.2969602927252749	0.4152434277982816	0.5637859971379839	0.3191299437165356	0.4168436879013189	0.5434174044899382	0.3577251269773713	0.3486039496549066	0.7949667334508219	0.23851166760285658	0.23778768814704077	0.97034235636869	0.3663524577001631	0.19645992574155036	0.9177671413389485	0.5397599316322866	0.20353312116544459	0.8623185525867307	0.6181115709457577	0.14855045635488723	0.847935491514263	0.6290799460899122	0.1247835555462331	0.9632252314720898	0.6494795914869523
95	1.5833333333333333	0.5325188198168063	0.7720693783778615	0.753541953465381	0.5272444045309844	0.9502341986795169	1.2059540537970108	0.5249147771102863	1.160556722893105	1.6009372957573353	0.4980330490792648	0.9368819784863952	1.653041913202876	0.5610744088769005	0.9788245184240146	1.64626374222268	0.5126215625694637	1.2505194100160357	1.665340485146293	0.36137189879059556	0.8523311885679425	0.722355455763385	0.3375802409043449	0.9845634117973363	1.2063413096019802	0.34818480987258943	1.1562274355859226	1.6036078785868504	0.3402659122215003	0.9403264373213355	1.6362087883656307	0.2853390784768018	1.0213565167264718	1.6435260280863644	0.3662414315163682	1.2390826897706577	1.6503397527012325	0.47105246562569847	0.7116379491742165	0.1701937915588551	0.4422604657857723	0.5759604560747037	-0.053889241355806076	0.41966298593401724	0.5557269487330192	0.06491348428338108	0.6128431302306319	0.698052926812055	0.2741349582104851	0.6576123836574225	0.6366041695139423	0.522508372300981	0.5053057253851916	0.5557380594893175	0.4128595735015707	0.4116330901986806	0.5535507091738531	0.319529351380188	0.40592505925650013	0.5298669088861623	0.32600247002184385	0.4138060969132346	0.5258811531074978	0.38921838918933493	0.34834293908764563	0.7959352737194588	0.24192693481788896	0.2482173632916569	0.9562602198178973	0.37377158203382704	0.19660307331281962	0.8898999608390133	0.5539288787376199	0.1936776447288498	0.8357681695559616	0.6320066913161269	0.13910544863994115	0.8337827421684544	0.6420439673372524	0.11863885502108376	0.9321316121464303	0.6552241632331219
96	1.6	0.5289032996886092	0.7872169774374731	0.7551171984651435	0.5221814693365076	0.9480612442906285	1.2055080512677099	0.5299381411898227	1.1261073342017252	1.602943635762017	0.491969612373845	0.9246622614633169	1.652677512022062	0.5631359012937628	0.959575418810879	1.6431475749429736	0.5169465963361043	1.2567979528688953	1.6813115787135853	0.35726139094482157	0.8665978505973453	0.7238454535519331	0.33304046190233716	1.0056432146927503	1.219978966395114	0.34759105991754685	1.1552605531328408	1.6037531183007407	0.3355863898696576	0.9222644107523417	1.625096533707929	0.2927072994991781	1.0174834589192587	1.6416834391209412	0.3651173666178864	1.2330367612578252	1.6537669167399651	0.47113246796752956	0.7119569652830761	0.17411723654034358	0.4380558515651203	0.5753749280532794	-0.053682050631923384	0.41963838036834755	0.5559683419158162	0.07153793888600564	0.6082922571121149	0.6974606168946369	0.27778462224870887	0.6599477187420076	0.6661252466284212	0.5309312139519695	0.5050809249324644	0.5579445075307531	0.4233101295960055	0.4014044723458598	0.5806212640925327	0.3310875362102905	0.39988295650375205	0.5411932442723761	0.33594603921940064	0.4206599799499401	0.5207075688005488	0.4110027263008782	0.3397731774371911	0.8071360232619631	0.24526693353892842	0.23549628086672997	0.970605485000698	0.3906269710345023	0.1857473941222022	0.8668655496198103	0.5652836478865073	0.18895227980187201	0.8222410960774967	0.6350322286380261	0.1438459984082366	0.8207427794690115	0.6416236150145608	0.11281979135527122	0.9102677888296318	0.66929037657998
97	1.6166666666666667	0.5326570961141054	0.8038081133094424	0.7648233493674733	0.5174626422076605	0.9461461041522593	1.204987630002378	0.5231244846925623	1.090199536723634	1.5949905810106992	0.4921512042440337	0.9256480149497538	1.6531734295573846	0.5579455782848728	0.9476623276034996	1.6429051376627615	0.5074294873666939	1.2357477806386106	1.6741701363283656	0.3578873941193283	0.8720680674164155	0.7370664599265925	0.33396173302464616	1.0041450282274669	1.2163287846748392	0.35223367503119873	1.1579386710783246	1.6050968675275414	0.3398767817344962	0.9353555878978673	1.6346380430729575	0.29298694889545523	1.0179609432170333	1.6420006900465807	0.37425764145828794	1.2311642218040988	1.6531113325447344	0.47131504017890924	0.7120240288678398	0.17782375901444963	0.4375039742219618	0.5760468898201476	-0.050242255619631235	0.41974188052039	0.5558636996683838	0.06829247967926494	0.6044810787477478	0.7142029613112364	0.28814632764735304	0.6633505653178187	0.6957444912760062	0.5356505269550189	0.49788108788045043	0.561772782684082	0.43401292078270326	0.3984988985723647	0.5725002625732526	0.345949744242785	0.3903232339687791	0.5375794129045506	0.3589529894721698	0.41010496368689536	0.4996830336711989	0.41784076496590866	0.3390205562270737	0.79139688619126	0.24652341520240753	0.24050648373968708	0.9572266039793167	0.39948824453925	0.18676030024945658	0.8604561765945933	0.5807037847981655	0.17445536675953838	0.803450617365147	0.6446424784990197	0.14462527267641792	0.8067539710603467	0.6520121315339792	0.11333500853364105	0.9069830215214982	0.677129862950695
